<svg width="22" height="17" viewBox="0 0 22 17" fill="none" xmlns="http://www.w3.org/2000/svg">
<rect x="0.25" y="0.25" width="21.5" height="15.7609" rx="1.75" fill="white" stroke="#F5F5F5" stroke-width="0.5"/>
<mask id="mask0_6_703" style="mask-type:luminance" maskUnits="userSpaceOnUse" x="0" y="0" width="22" height="17">
<rect x="0.25" y="0.25" width="21.5" height="15.7609" rx="1.75" fill="white" stroke="white" stroke-width="0.5"/>
</mask>
<g mask="url(#mask0_6_703)">
<path fill-rule="evenodd" clip-rule="evenodd" d="M0 5.42029H22V0H0V5.42029Z" fill="#38BB56"/>
<path fill-rule="evenodd" clip-rule="evenodd" d="M0 16.2609H22V10.8406H0V16.2609Z" fill="#DE1B27"/>
<path fill-rule="evenodd" clip-rule="evenodd" d="M3.47613 4.33643C3.29204 4.33643 3.1428 4.48566 3.1428 4.66976V5.08715C3.1428 5.27125 3.29204 5.42048 3.47613 5.42048H3.85709C4.04118 5.42048 4.19042 5.27125 4.19042 5.08715V4.66976C4.19042 4.48566 4.04118 4.33643 3.85709 4.33643H3.47613ZM1.38095 4.33651C1.19686 4.33651 1.04762 4.48575 1.04762 4.66984V5.08724C1.04762 5.27133 1.19686 5.42057 1.38095 5.42057H1.7619C1.946 5.42057 2.09524 5.27133 2.09524 5.08724V4.66984C2.09524 4.48575 1.946 4.33651 1.7619 4.33651H1.38095ZM5.23811 4.66976C5.23811 4.48566 5.38735 4.33643 5.57144 4.33643H5.9524C6.13649 4.33643 6.28573 4.48566 6.28573 4.66976V5.08715C6.28573 5.27125 6.13649 5.42048 5.9524 5.42048H5.57144C5.38735 5.42048 5.23811 5.27125 5.23811 5.08715V4.66976ZM7.66664 4.33643C7.48254 4.33643 7.3333 4.48566 7.3333 4.66976V5.08715C7.3333 5.27125 7.48254 5.42048 7.66664 5.42048H8.04759C8.23169 5.42048 8.38092 5.27125 8.38092 5.08715V4.66976C8.38092 4.48566 8.23169 4.33643 8.04759 4.33643H7.66664ZM9.42862 4.66976C9.42862 4.48566 9.57785 4.33643 9.76195 4.33643H10.1429C10.327 4.33643 10.4762 4.48566 10.4762 4.66976V5.08715C10.4762 5.27125 10.327 5.42048 10.1429 5.42048H9.76195C9.57785 5.42048 9.42862 5.27125 9.42862 5.08715V4.66976ZM11.8571 4.33643C11.673 4.33643 11.5238 4.48566 11.5238 4.66976V5.08715C11.5238 5.27125 11.673 5.42048 11.8571 5.42048H12.2381C12.4222 5.42048 12.5714 5.27125 12.5714 5.08715V4.66976C12.5714 4.48566 12.4222 4.33643 12.2381 4.33643H11.8571ZM13.619 4.66976C13.619 4.48566 13.7682 4.33643 13.9523 4.33643H14.3333C14.5174 4.33643 14.6666 4.48566 14.6666 4.66976V5.08715C14.6666 5.27125 14.5174 5.42048 14.3333 5.42048H13.9523C13.7682 5.42048 13.619 5.27125 13.619 5.08715V4.66976ZM16.0476 4.33643C15.8636 4.33643 15.7143 4.48566 15.7143 4.66976V5.08715C15.7143 5.27125 15.8636 5.42048 16.0476 5.42048H16.4286C16.6127 5.42048 16.7619 5.27125 16.7619 5.08715V4.66976C16.7619 4.48566 16.6127 4.33643 16.4286 4.33643H16.0476ZM17.8095 4.66976C17.8095 4.48566 17.9587 4.33643 18.1428 4.33643H18.5238C18.7079 4.33643 18.8571 4.48566 18.8571 4.66976V5.08715C18.8571 5.27125 18.7079 5.42048 18.5238 5.42048H18.1428C17.9587 5.42048 17.8095 5.27125 17.8095 5.08715V4.66976ZM20.238 4.33643C20.0539 4.33643 19.9047 4.48566 19.9047 4.66976V5.08715C19.9047 5.27125 20.0539 5.42048 20.238 5.42048H20.619C20.8031 5.42048 20.9523 5.27125 20.9523 5.08715V4.66976C20.9523 4.48566 20.8031 4.33643 20.619 4.33643H20.238ZM1.04761 11.1742C1.04761 10.9901 1.19685 10.8408 1.38094 10.8408H1.76189C1.94599 10.8408 2.09523 10.9901 2.09523 11.1742V11.5915C2.09523 11.7756 1.94599 11.9249 1.76189 11.9249H1.38094C1.19685 11.9249 1.04761 11.7756 1.04761 11.5915V11.1742ZM3.47613 10.8408C3.29204 10.8408 3.1428 10.9901 3.1428 11.1742V11.5915C3.1428 11.7756 3.29204 11.9249 3.47613 11.9249H3.85709C4.04118 11.9249 4.19042 11.7756 4.19042 11.5915V11.1742C4.19042 10.9901 4.04118 10.8408 3.85709 10.8408H3.47613ZM5.23811 11.1742C5.23811 10.9901 5.38735 10.8408 5.57144 10.8408H5.9524C6.13649 10.8408 6.28573 10.9901 6.28573 11.1742V11.5915C6.28573 11.7756 6.13649 11.9249 5.9524 11.9249H5.57144C5.38735 11.9249 5.23811 11.7756 5.23811 11.5915V11.1742ZM7.66664 10.8408C7.48254 10.8408 7.3333 10.9901 7.3333 11.1742V11.5915C7.3333 11.7756 7.48254 11.9249 7.66664 11.9249H8.04759C8.23169 11.9249 8.38092 11.7756 8.38092 11.5915V11.1742C8.38092 10.9901 8.23169 10.8408 8.04759 10.8408H7.66664ZM9.42862 11.1742C9.42862 10.9901 9.57785 10.8408 9.76195 10.8408H10.1429C10.327 10.8408 10.4762 10.9901 10.4762 11.1742V11.5915C10.4762 11.7756 10.327 11.9249 10.1429 11.9249H9.76195C9.57785 11.9249 9.42862 11.7756 9.42862 11.5915V11.1742ZM11.8571 10.8408C11.673 10.8408 11.5238 10.9901 11.5238 11.1742V11.5915C11.5238 11.7756 11.673 11.9249 11.8571 11.9249H12.2381C12.4222 11.9249 12.5714 11.7756 12.5714 11.5915V11.1742C12.5714 10.9901 12.4222 10.8408 12.2381 10.8408H11.8571ZM13.619 11.1742C13.619 10.9901 13.7682 10.8408 13.9523 10.8408H14.3333C14.5174 10.8408 14.6666 10.9901 14.6666 11.1742V11.5915C14.6666 11.7756 14.5174 11.9249 14.3333 11.9249H13.9523C13.7682 11.9249 13.619 11.7756 13.619 11.5915V11.1742ZM16.0476 10.8408C15.8636 10.8408 15.7143 10.9901 15.7143 11.1742V11.5915C15.7143 11.7756 15.8636 11.9249 16.0476 11.9249H16.4286C16.6127 11.9249 16.7619 11.7756 16.7619 11.5915V11.1742C16.7619 10.9901 16.6127 10.8408 16.4286 10.8408H16.0476ZM17.8095 11.1742C17.8095 10.9901 17.9587 10.8408 18.1428 10.8408H18.5238C18.7079 10.8408 18.8571 10.9901 18.8571 11.1742V11.5915C18.8571 11.7756 18.7079 11.9249 18.5238 11.9249H18.1428C17.9587 11.9249 17.8095 11.7756 17.8095 11.5915V11.1742ZM20.238 10.8408C20.0539 10.8408 19.9047 10.9901 19.9047 11.1742V11.5915C19.9047 11.7756 20.0539 11.9249 20.238 11.9249H20.619C20.8031 11.9249 20.9523 11.7756 20.9523 11.5915V11.1742C20.9523 10.9901 20.8031 10.8408 20.619 10.8408H20.238Z" fill="white" fill-opacity="0.5"/>
<mask id="path-6-inside-1_6_703" fill="white">
<path fill-rule="evenodd" clip-rule="evenodd" d="M9.94206 6.92798C9.62658 7.22539 9.42859 7.65394 9.42859 8.13035C9.42859 9.02842 10.1321 9.75644 11 9.75644C11.8679 9.75644 12.5714 9.02842 12.5714 8.13035C12.5714 7.66293 12.3809 7.24158 12.0757 6.94496"/>
</mask>
<path d="M9.48476 6.44288C9.03842 6.86365 8.76192 7.46655 8.76192 8.13035H10.0953C10.0953 7.84134 10.2147 7.58712 10.3994 7.41307L9.48476 6.44288ZM8.76192 8.13035C8.76192 9.37494 9.74265 10.4231 11 10.4231V9.08977C10.5216 9.08977 10.0953 8.6819 10.0953 8.13035H8.76192ZM11 10.4231C12.2574 10.4231 13.2381 9.37494 13.2381 8.13035H11.9048C11.9048 8.6819 11.4784 9.08977 11 9.08977V10.4231ZM13.2381 8.13035C13.2381 7.4791 12.972 6.88643 12.5404 6.46692L11.611 7.42299C11.7898 7.59673 11.9048 7.84677 11.9048 8.13035H13.2381Z" fill="#D80915" mask="url(#path-6-inside-1_6_703)"/>
<rect x="10.4762" y="7.58838" width="1.04762" height="2.16812" rx="0.523809" fill="#D80915"/>
</g>
</svg>
